<svg width="40" height="40" viewBox="0 0 40 40" fill="none" xmlns="http://www.w3.org/2000/svg">
<g id="Frame 6">
<g id="Vector">
<path d="M20.6424 7.83217C20.102 7.83217 19.6634 7.39357 19.6634 6.85315C19.6634 3.06825 22.7336 0 26.5166 0C27.059 0 27.4956 0.438602 27.4956 0.979022C27.4956 4.76392 24.4273 7.83217 20.6424 7.83217Z" fill="black"/>
<path d="M34.9371 28.4475C35.315 28.7315 35.4383 29.2464 35.2249 29.6694C31.7788 36.5656 29.0297 40 26.5175 40C25.3485 40 24.1992 39.6221 23.0792 38.8859C21.4481 37.8109 19.3432 37.7659 17.6671 38.7684C16.3102 39.581 15.0179 40 13.7902 40C10.0954 40 4 28.6218 4 22.3776C4 15.7124 7.49511 10.6293 12.8112 10.6293C15.3116 10.6293 17.4713 10.9975 19.2845 11.7454C20.054 12.0626 20.9234 12.0391 21.6733 11.6789C23.1458 10.972 25.0862 10.6293 27.4965 10.6293C30.4375 10.6293 33.0006 12.094 35.1329 14.937C35.456 15.3698 35.3698 15.9826 34.9371 16.3077C32.5581 18.0915 31.4126 20.0965 31.4126 22.3776C31.4126 24.6587 32.5581 26.6638 34.9371 28.4475Z" fill="black"/>
</g>
</g>
</svg>
