<svg width="40" height="40" viewBox="0 0 40 40" fill="none" xmlns="http://www.w3.org/2000/svg">
<g id="Frame 15">
<path id="Vector (Stroke)" fill-rule="evenodd" clip-rule="evenodd" d="M0 5H8.03987C12.4802 5 16.0797 8.59957 16.0797 13.0399C16.0797 15.3161 15.1338 17.3714 13.6136 18.8341C16.6124 20.0017 18.7375 22.9171 18.7375 26.3289C18.7375 30.7692 15.138 34.3688 10.6977 34.3688H0V5ZM2.7907 21.0797V31.5781H10.6977C13.5967 31.5781 15.9468 29.2279 15.9468 26.3289C15.9468 23.4299 13.5967 21.0797 10.6977 21.0797H2.7907ZM2.7907 18.289H8.03987C10.9389 18.289 13.289 15.9389 13.289 13.0399C13.289 10.1408 10.9389 7.7907 8.03987 7.7907H2.7907V18.289ZM37.2757 10.4485H23.9867V7.65781H37.2757V10.4485ZM21.2625 25C21.2625 19.8258 25.457 15.6312 30.6312 15.6312C35.8055 15.6312 40 19.8258 40 25V26.3953H24.2014C24.8414 29.3581 27.477 31.5781 30.6312 31.5781C32.8242 31.5781 34.7667 30.5064 35.9642 28.8521L38.2248 30.4884C36.5251 32.8366 33.757 34.3688 30.6312 34.3688C25.457 34.3688 21.2625 30.1742 21.2625 25ZM24.2014 23.6047H37.061C36.4211 20.6419 33.7854 18.4219 30.6312 18.4219C27.477 18.4219 24.8414 20.6419 24.2014 23.6047Z" fill="black"/>
</g>
</svg>
