<svg width="156" height="157" viewBox="0 0 156 157" fill="none" xmlns="http://www.w3.org/2000/svg">
<path d="M82.2122 3.24747C83.1083 3.24747 83.8348 2.5205 83.8348 1.62373C83.8348 0.72697 83.1083 0 82.2122 0C81.316 0 80.5896 0.72697 80.5896 1.62373C80.5896 2.5205 81.316 3.24747 82.2122 3.24747Z" fill="black"/>
<path d="M101.405 20.8461C101.258 21.0178 101.077 21.1573 100.874 21.2557C100.67 21.3541 100.449 21.4095 100.223 21.4182C99.9976 21.4269 99.7725 21.3889 99.5621 21.3064C99.3518 21.2239 99.1608 21.0989 99.001 20.939C98.8413 20.7792 98.7163 20.588 98.6339 20.3776C98.5516 20.1671 98.5135 19.9419 98.5222 19.716C98.5309 19.4901 98.5862 19.2685 98.6846 19.065C98.783 18.8615 98.9223 18.6806 99.0939 18.5335C99.4075 18.2648 99.8108 18.1244 100.223 18.1404C100.636 18.1563 101.027 18.3274 101.319 18.6195C101.611 18.9116 101.782 19.3032 101.798 19.716C101.814 20.1288 101.673 20.5324 101.405 20.8461Z" fill="black"/>
<path d="M119.434 38.8876C119.206 39.1203 118.914 39.2797 118.595 39.3457C118.276 39.4116 117.945 39.3811 117.644 39.2579C117.342 39.1348 117.084 38.9246 116.903 38.6541C116.721 38.3837 116.624 38.0653 116.624 37.7395C116.624 37.4137 116.721 37.0953 116.903 36.8249C117.084 36.5545 117.342 36.3443 117.644 36.2211C117.945 36.0979 118.276 36.0674 118.595 36.1333C118.914 36.1993 119.206 36.3588 119.434 36.5914C119.734 36.898 119.902 37.3102 119.902 37.7395C119.902 38.1688 119.734 38.581 119.434 38.8876Z" fill="black"/>
<path d="M137.479 56.9455C137.166 57.2142 136.762 57.3546 136.35 57.3386C135.937 57.3227 135.546 57.1516 135.254 56.8595C134.962 56.5674 134.791 56.1758 134.775 55.763C134.76 55.3502 134.9 54.9467 135.168 54.6329C135.482 54.3642 135.885 54.2238 136.298 54.2397C136.71 54.2557 137.101 54.4268 137.393 54.7189C137.685 55.011 137.856 55.4026 137.872 55.8153C137.888 56.2281 137.748 56.6317 137.479 56.9455Z" fill="black"/>
<path d="M154.361 75.4462C155.257 75.4462 155.984 74.7192 155.984 73.8225C155.984 72.9257 155.257 72.1987 154.361 72.1987C153.465 72.1987 152.738 72.9257 152.738 73.8225C152.738 74.7192 153.465 75.4462 154.361 75.4462Z" fill="black"/>
<path d="M67.2481 18.9108C67.0202 19.1434 66.7283 19.3029 66.4094 19.3688C66.0906 19.4348 65.7594 19.4042 65.458 19.2811C65.1566 19.1579 64.8987 18.9477 64.7171 18.6773C64.5356 18.4069 64.4386 18.0884 64.4386 17.7627C64.4386 17.4369 64.5356 17.1185 64.7171 16.848C64.8987 16.5776 65.1566 16.3674 65.458 16.2443C65.7594 16.1211 66.0906 16.0905 66.4094 16.1565C66.7283 16.2224 67.0202 16.3819 67.2481 16.6146C67.5484 16.9212 67.7166 17.3334 67.7166 17.7627C67.7166 18.192 67.5484 18.6042 67.2481 18.9108Z" fill="black"/>
<path d="M84.1298 37.4279C85.026 37.4279 85.7524 36.7009 85.7524 35.8041C85.7524 34.9074 85.026 34.1804 84.1298 34.1804C83.2337 34.1804 82.5072 34.9074 82.5072 35.8041C82.5072 36.7009 83.2337 37.4279 84.1298 37.4279Z" fill="black"/>
<path d="M102.175 55.4858C103.071 55.4858 103.798 54.7588 103.798 53.862C103.798 52.9653 103.071 52.2383 102.175 52.2383C101.279 52.2383 100.553 52.9653 100.553 53.862C100.553 54.7588 101.279 55.4858 102.175 55.4858Z" fill="black"/>
<path d="M120.204 73.5273C121.1 73.5273 121.827 72.8003 121.827 71.9035C121.827 71.0068 121.1 70.2798 120.204 70.2798C119.308 70.2798 118.582 71.0068 118.582 71.9035C118.582 72.8003 119.308 73.5273 120.204 73.5273Z" fill="black"/>
<path d="M138.25 91.5851C139.146 91.5851 139.872 90.8582 139.872 89.9614C139.872 89.0646 139.146 88.3377 138.25 88.3377C137.353 88.3377 136.627 89.0646 136.627 89.9614C136.627 90.8582 137.353 91.5851 138.25 91.5851Z" fill="black"/>
<path d="M51.1367 35.0497C50.8254 35.2631 50.45 35.3625 50.0739 35.331C49.6979 35.2996 49.3442 35.1393 49.0726 34.8771C48.801 34.6149 48.6281 34.267 48.5831 33.8921C48.5381 33.5171 48.6238 33.1381 48.8257 32.8191C49.1393 32.5504 49.5426 32.41 49.9551 32.4259C50.3676 32.4419 50.7589 32.613 51.0508 32.9051C51.3427 33.1972 51.5137 33.5888 51.5296 34.0016C51.5456 34.4143 51.4052 34.8179 51.1367 35.1317V35.0497Z" fill="black"/>
<path d="M68.0185 53.5668C68.9146 53.5668 69.6411 52.8398 69.6411 51.9431C69.6411 51.0463 68.9146 50.3193 68.0185 50.3193C67.1223 50.3193 66.3958 51.0463 66.3958 51.9431C66.3958 52.8398 67.1223 53.5668 68.0185 53.5668Z" fill="black"/>
<path d="M86.0638 71.6083C86.96 71.6083 87.6864 70.8813 87.6864 69.9846C87.6864 69.0878 86.96 68.3608 86.0638 68.3608C85.1677 68.3608 84.4412 69.0878 84.4412 69.9846C84.4412 70.8813 85.1677 71.6083 86.0638 71.6083Z" fill="black"/>
<path d="M104.093 89.6662C104.989 89.6662 105.715 88.9392 105.715 88.0424C105.715 87.1457 104.989 86.4187 104.093 86.4187C103.197 86.4187 102.47 87.1457 102.47 88.0424C102.47 88.9392 103.197 89.6662 104.093 89.6662Z" fill="black"/>
<path d="M123.286 107.248C122.972 107.517 122.569 107.658 122.156 107.642C121.744 107.626 121.352 107.455 121.061 107.162C120.769 106.87 120.598 106.479 120.582 106.066C120.566 105.653 120.706 105.25 120.975 104.936C121.122 104.764 121.302 104.625 121.506 104.526C121.709 104.428 121.93 104.372 122.156 104.364C122.382 104.355 122.607 104.393 122.817 104.476C123.028 104.558 123.219 104.683 123.378 104.843C123.538 105.003 123.663 105.194 123.745 105.404C123.828 105.615 123.866 105.84 123.857 106.066C123.849 106.292 123.793 106.513 123.695 106.717C123.596 106.92 123.457 107.101 123.286 107.248Z" fill="black"/>
<path d="M35.009 51.1722C34.7811 51.4049 34.4891 51.5643 34.1703 51.6303C33.8515 51.6962 33.5203 51.6657 33.2189 51.5425C32.9175 51.4194 32.6596 51.2092 32.478 50.9387C32.2965 50.6683 32.1995 50.3499 32.1995 50.0241C32.1995 49.6983 32.2965 49.3799 32.478 49.1095C32.6596 48.8391 32.9175 48.6289 33.2189 48.5057C33.5203 48.3825 33.8515 48.352 34.1703 48.4179C34.4891 48.4839 34.7811 48.6434 35.009 48.876C35.3093 49.1826 35.4775 49.5948 35.4775 50.0241C35.4775 50.4534 35.3093 50.8656 35.009 51.1722Z" fill="black"/>
<path d="M53.0544 69.2301C52.8256 69.4604 52.5335 69.6176 52.2153 69.6817C51.8971 69.7458 51.5671 69.7139 51.267 69.59C50.967 69.4662 50.7104 69.256 50.5299 68.986C50.3494 68.7161 50.253 68.3986 50.253 68.0738C50.253 67.749 50.3494 67.4315 50.5299 67.1616C50.7104 66.8917 50.967 66.6814 51.267 66.5576C51.5671 66.4337 51.8971 66.4018 52.2153 66.4659C52.5335 66.53 52.8256 66.6872 53.0544 66.9175C53.3597 67.2248 53.531 67.6405 53.531 68.0738C53.531 68.5071 53.3597 68.9228 53.0544 69.2301Z" fill="black"/>
<path d="M69.9361 87.7472C70.8322 87.7472 71.5587 87.0203 71.5587 86.1235C71.5587 85.2267 70.8322 84.4998 69.9361 84.4998C69.0399 84.4998 68.3135 85.2267 68.3135 86.1235C68.3135 87.0203 69.0399 87.7472 69.9361 87.7472Z" fill="black"/>
<path d="M89.1288 105.329C88.8999 105.56 88.6079 105.717 88.2897 105.781C87.9715 105.845 87.6415 105.813 87.3414 105.689C87.0413 105.566 86.7848 105.355 86.6043 105.085C86.4238 104.815 86.3274 104.498 86.3274 104.173C86.3274 103.848 86.4238 103.531 86.6043 103.261C86.7848 102.991 87.0413 102.781 87.3414 102.657C87.6415 102.533 87.9715 102.501 88.2897 102.565C88.6079 102.629 88.8999 102.787 89.1288 103.017C89.434 103.324 89.6054 103.74 89.6054 104.173C89.6054 104.606 89.434 105.022 89.1288 105.329Z" fill="black"/>
<path d="M107.158 123.371C106.93 123.604 106.638 123.763 106.319 123.829C106 123.895 105.669 123.864 105.368 123.741C105.066 123.618 104.808 123.408 104.627 123.137C104.445 122.867 104.348 122.549 104.348 122.223C104.348 121.897 104.445 121.579 104.627 121.308C104.808 121.038 105.066 120.828 105.368 120.704C105.669 120.581 106 120.551 106.319 120.617C106.638 120.683 106.93 120.842 107.158 121.075C107.458 121.381 107.626 121.794 107.626 122.223C107.626 122.652 107.458 123.064 107.158 123.371Z" fill="black"/>
<path d="M18.8976 67.2619C18.7507 67.4336 18.5699 67.5731 18.3666 67.6715C18.1632 67.77 17.9417 67.8253 17.716 67.834C17.4903 67.8427 17.2652 67.8047 17.0549 67.7222C16.8446 67.6398 16.6535 67.5147 16.4938 67.3548C16.3341 67.195 16.2091 67.0039 16.1267 66.7934C16.0443 66.5829 16.0063 66.3577 16.015 66.1318C16.0237 65.9059 16.079 65.6843 16.1774 65.4808C16.2758 65.2773 16.4151 65.0964 16.5867 64.9493C16.9002 64.6806 17.3035 64.5402 17.716 64.5562C18.1285 64.5721 18.5198 64.7432 18.8117 65.0353C19.1036 65.3274 19.2746 65.719 19.2905 66.1318C19.3064 66.5446 19.1661 66.9482 18.8976 67.2619Z" fill="black"/>
<path d="M35.7793 85.8119C36.6755 85.8119 37.4019 85.0849 37.4019 84.1881C37.4019 83.2914 36.6755 82.5644 35.7793 82.5644C34.8832 82.5644 34.1567 83.2914 34.1567 84.1881C34.1567 85.0849 34.8832 85.8119 35.7793 85.8119Z" fill="black"/>
<path d="M53.8247 103.87C54.7209 103.87 55.4473 103.143 55.4473 102.246C55.4473 101.349 54.7209 100.622 53.8247 100.622C52.9286 100.622 52.2021 101.349 52.2021 102.246C52.2021 103.143 52.9286 103.87 53.8247 103.87Z" fill="black"/>
<path d="M71.8537 121.911C72.7499 121.911 73.4763 121.184 73.4763 120.287C73.4763 119.391 72.7499 118.664 71.8537 118.664C70.9576 118.664 70.2311 119.391 70.2311 120.287C70.2311 121.184 70.9576 121.911 71.8537 121.911Z" fill="black"/>
<path d="M91.0464 139.51C90.7329 139.779 90.3296 139.919 89.9171 139.903C89.5046 139.887 89.1133 139.716 88.8214 139.424C88.5295 139.132 88.3585 138.74 88.3425 138.327C88.3266 137.915 88.4669 137.511 88.7354 137.197C88.8824 137.026 89.0632 136.886 89.2665 136.788C89.4699 136.689 89.6913 136.634 89.9171 136.625C90.1428 136.616 90.3679 136.655 90.5782 136.737C90.7885 136.819 90.9795 136.945 91.1393 137.104C91.299 137.264 91.424 137.455 91.5064 137.666C91.5888 137.876 91.6268 138.102 91.6181 138.327C91.6094 138.553 91.5541 138.775 91.4557 138.978C91.3573 139.182 91.218 139.363 91.0464 139.51Z" fill="black"/>
<path d="M2.73709 83.4337C2.5092 83.6663 2.21725 83.8258 1.89843 83.8918C1.57961 83.9577 1.24838 83.9272 0.946985 83.804C0.645588 83.6808 0.387662 83.4706 0.206114 83.2002C0.0245668 82.9298 -0.0723877 82.6114 -0.0723877 82.2856C-0.0723877 81.9598 0.0245668 81.6414 0.206114 81.371C0.387662 81.1005 0.645588 80.8903 0.946985 80.7672C1.24838 80.644 1.57961 80.6134 1.89843 80.6794C2.21725 80.7453 2.5092 80.9048 2.73709 81.1375C3.0374 81.4441 3.20561 81.8563 3.20561 82.2856C3.20561 82.7149 3.0374 83.1271 2.73709 83.4337Z" fill="black"/>
<path d="M19.668 101.951C20.5641 101.951 21.2906 101.224 21.2906 100.327C21.2906 99.4303 20.5641 98.7033 19.668 98.7033C18.7718 98.7033 18.0453 99.4303 18.0453 100.327C18.0453 101.224 18.7718 101.951 19.668 101.951Z" fill="black"/>
<path d="M37.697 119.992C38.5931 119.992 39.3196 119.265 39.3196 118.369C39.3196 117.472 38.5931 116.745 37.697 116.745C36.8008 116.745 36.0743 117.472 36.0743 118.369C36.0743 119.265 36.8008 119.992 37.697 119.992Z" fill="black"/>
<path d="M55.7423 138.05C56.6385 138.05 57.365 137.323 57.365 136.426C57.365 135.53 56.6385 134.803 55.7423 134.803C54.8462 134.803 54.1197 135.53 54.1197 136.426C54.1197 137.323 54.8462 138.05 55.7423 138.05Z" fill="black"/>
<path d="M74.8531 155.632C74.6252 155.865 74.3332 156.025 74.0144 156.091C73.6956 156.156 73.3644 156.126 73.063 156.003C72.7616 155.88 72.5037 155.669 72.3221 155.399C72.1406 155.128 72.0436 154.81 72.0436 154.484C72.0436 154.159 72.1406 153.84 72.3221 153.57C72.5037 153.299 72.7616 153.089 73.063 152.966C73.3644 152.843 73.6956 152.812 74.0144 152.878C74.3332 152.944 74.6252 153.104 74.8531 153.336C75.1534 153.643 75.3216 154.055 75.3216 154.484C75.3216 154.914 75.1534 155.326 74.8531 155.632Z" fill="black"/>
</svg>
