<svg width="64" height="64" viewBox="0 0 64 64" fill="none" xmlns="http://www.w3.org/2000/svg">
<path d="M32.2243 63.9999C25.9397 63.9999 19.7961 62.1363 14.5706 58.6447C9.34516 55.1532 5.27239 50.1905 2.86736 44.3842C0.46233 38.578 -0.166924 32.1889 1.05915 26.0251C2.28522 19.8612 5.31158 14.1993 9.75549 9.7554C14.1994 5.31149 19.8613 2.28513 26.0252 1.05906C32.1891 -0.167015 38.5781 0.462267 44.3843 2.8673C50.1906 5.27232 55.1533 9.34507 58.6448 14.5706C62.1364 19.796 64 25.9396 64 32.2242C64 40.6516 60.6522 48.7339 54.6931 54.693C48.734 60.6521 40.6517 63.9999 32.2243 63.9999ZM32.2243 15.4018C28.8971 15.4018 25.6447 16.3884 22.8783 18.2369C20.1118 20.0853 17.9557 22.7126 16.6824 25.7865C15.4092 28.8604 15.076 32.2429 15.7251 35.5061C16.3742 38.7693 17.9764 41.7668 20.3291 44.1194C22.6817 46.4721 25.6792 48.0743 28.9424 48.7234C32.2057 49.3725 35.5881 49.0393 38.662 47.7661C41.7359 46.4928 44.3631 44.3367 46.2116 41.5703C48.0601 38.8038 49.0467 35.5514 49.0467 32.2242C49.0467 27.7626 47.2744 23.4838 44.1195 20.3289C40.9647 17.1741 36.6859 15.4018 32.2243 15.4018Z" fill="black"/>
</svg>
