<svg width="60" height="60" viewBox="0 0 60 60" fill="none" xmlns="http://www.w3.org/2000/svg">
<circle cx="20" cy="40" r="20" fill="#FFAF00"/>
<path fill-rule="evenodd" clip-rule="evenodd" d="M28.5 8V0H31.5V8H28.5ZM7.06066 8.93934L13.0607 14.9393L10.9393 17.0607L4.93934 11.0607L7.06066 8.93934ZM55.0607 11.0607L49.0607 17.0607L46.9393 14.9393L52.9393 8.93934L55.0607 11.0607ZM14.818 25.6672C15.8973 18.1119 22.3679 12.5 29.9999 12.5C37.632 12.5 44.1026 18.1119 45.1819 25.6673L45.2221 25.9487C45.839 30.2666 44.6039 34.3776 42.1642 37.5297C40.6168 39.5289 39.5 41.5332 39.5 43.6052V50C39.5 50.8284 38.8284 51.5 38 51.5H22C21.1716 51.5 20.5 50.8284 20.5 50V43.6053C20.5 41.5333 19.3831 39.529 17.8357 37.5298C15.396 34.3776 14.1609 30.2667 14.7778 25.9487L16.2627 26.1608L14.7778 25.9487L14.818 25.6672ZM29.9999 15.5C23.8609 15.5 18.656 20.0141 17.7878 26.0915L17.7476 26.3729C17.2507 29.851 18.242 33.1533 20.2081 35.6935C21.839 37.8006 23.5 40.4847 23.5 43.6053V48.5H36.5V43.6052C36.5 40.4846 38.1609 37.8006 39.7918 35.6935C41.7579 33.1532 42.7491 29.851 42.2523 26.3729L42.2121 26.0915C41.3439 20.0142 36.139 15.5 29.9999 15.5ZM8 31.5H0V28.5H8V31.5ZM60 31.5H52V28.5H60V31.5ZM36 59.5H24V56.5H36V59.5Z" fill="black"/>
</svg>
