<svg width="40" height="40" viewBox="0 0 40 40" fill="none" xmlns="http://www.w3.org/2000/svg">
<g id="Frame 15">
<path id="Vector (Stroke)" fill-rule="evenodd" clip-rule="evenodd" d="M0 20C0 8.95475 8.95475 0 20 0C25.5919 0 30.648 2.29521 34.2775 5.99491C34.2903 6.00746 34.3028 6.02021 34.315 6.03314C37.8325 9.63781 40 14.5659 40 20C40 27.9135 35.4033 34.754 28.7345 37.9968C28.7095 38.0098 28.6841 38.0221 28.6582 38.0337C26.0383 39.2939 23.1016 40 20 40C8.95475 40 0 31.0453 0 20ZM29.1906 34.552C33.166 32.0359 36.0395 27.9358 36.9237 23.139C33.0462 22.1014 29.414 21.6953 26.0103 22.0661C27.4705 26.0183 28.5153 30.1404 29.1906 34.552ZM23.2155 22.5608C24.8114 26.7642 25.9061 31.1583 26.5691 35.9109C24.5449 36.7476 22.3263 37.2093 20 37.2093C15.8571 37.2093 12.0561 35.7452 9.08598 33.3062C13.0509 27.6156 17.3507 24.3965 21.9319 22.9259C22.3559 22.7898 22.7838 22.6682 23.2155 22.5608ZM24.9456 19.3867C28.8716 18.834 32.9714 19.2393 37.2062 20.3281C37.2083 20.2189 37.2093 20.1096 37.2093 20C37.2093 15.864 35.75 12.0686 33.3182 9.10065C30.4687 12.238 27.2429 14.4887 23.419 16.082C23.9636 17.1737 24.4721 18.2743 24.9456 19.3867ZM20.7816 17.0484C21.2674 18.0096 21.7235 18.9772 22.1507 19.9535C21.7919 20.0496 21.4346 20.1546 21.079 20.2688C15.8977 21.932 11.2236 25.4879 7.05652 31.3414C4.40068 28.3128 2.7907 24.3443 2.7907 20C2.7907 19.8503 2.79261 19.701 2.79641 19.5522C9.98492 19.3285 15.8513 18.6268 20.7816 17.0484ZM22.1114 13.6018C25.7775 12.1117 28.7596 10.0064 31.3762 7.08715C28.3433 4.41307 24.361 2.7907 20 2.7907C18.3564 2.7907 16.7666 3.02114 15.2612 3.45148C17.9379 6.82681 20.2098 10.1804 22.1114 13.6018ZM12.5223 4.49599C15.239 7.85384 17.5314 11.1702 19.4402 14.5437C15.0469 15.8776 9.7397 16.5254 3.09713 16.7502C4.13155 11.3382 7.70098 6.82577 12.5223 4.49599Z" fill="black"/>
</g>
</svg>
