<svg width="60" height="60" viewBox="0 0 60 60" fill="none" xmlns="http://www.w3.org/2000/svg">
<path fill-rule="evenodd" clip-rule="evenodd" d="M0 30C0 13.4315 13.4315 0 30 0C46.5685 0 60 13.4315 60 30V34.0816C60 35.974 59.4506 37.7423 58.502 39.2308C56.8016 41.8987 53.8126 43.6735 50.4082 43.6735C46.3118 43.6735 42.8152 41.1056 41.4402 37.4918C38.9972 41.2149 34.7857 43.6735 30 43.6735C22.4484 43.6735 16.3265 37.5516 16.3265 30C16.3265 22.4484 22.4484 16.3265 30 16.3265C37.5516 16.3265 43.6735 22.4484 43.6735 30V34.0816C43.6735 37.8011 46.6887 40.8163 50.4082 40.8163C52.7959 40.8163 54.8947 39.5747 56.0925 37.6952C56.7574 36.6519 57.1429 35.414 57.1429 34.0816V30C57.1429 15.0094 44.9906 2.85714 30 2.85714C15.0094 2.85714 2.85714 15.0094 2.85714 30C2.85714 44.9906 15.0094 57.1429 30 57.1429C35.7688 57.1429 41.1133 55.3448 45.5092 52.2786L47.1438 54.6219C42.284 58.0118 36.372 60 30 60C13.4315 60 0 46.5685 0 30ZM40.8163 30C40.8163 24.0263 35.9737 19.1837 30 19.1837C24.0263 19.1837 19.1837 24.0263 19.1837 30C19.1837 35.9737 24.0263 40.8163 30 40.8163C35.9737 40.8163 40.8163 35.9737 40.8163 30Z" fill="black"/>
</svg>
