<svg width="93" height="93" viewBox="0 0 93 93" fill="none" xmlns="http://www.w3.org/2000/svg">
<path d="M66.0444 91.1634C63.1259 91.1559 60.2749 90.2848 57.8507 88.6598C55.4264 87.0348 53.5373 84.7286 52.4215 82.0318C51.3056 79.3351 51.013 76.3684 51.5803 73.5055C52.1476 70.6427 53.5496 68.0118 55.6095 65.9444C57.4854 64.0705 58.9738 61.8455 59.9898 59.3964C61.0058 56.9473 61.5295 54.3221 61.5309 51.6706C61.5323 49.0191 61.0115 46.3934 59.9981 43.9432C58.9848 41.493 57.4987 39.2664 55.6248 37.3905C53.751 35.5146 51.526 34.0262 49.0769 33.0102C46.6278 31.9942 44.0026 31.4705 41.3511 31.4691C38.6996 31.4677 36.0738 31.9885 33.6237 33.0019C31.1735 34.0152 28.9469 35.5013 27.071 37.3751C24.2927 40.1021 20.5499 41.6218 16.657 41.6036C12.764 41.5854 9.03565 40.0309 6.28287 37.2781C3.53008 34.5253 1.97549 30.797 1.95731 26.904C1.93914 23.011 3.45882 19.2683 6.18578 16.4899C15.5093 7.1664 28.1548 1.9285 41.3402 1.9285C54.5257 1.9285 67.1711 7.1664 76.4947 16.4899C85.8182 25.8135 91.0562 38.4589 91.0562 51.6444C91.0562 64.8299 85.8182 77.4753 76.4947 86.7988C75.1266 88.1795 73.499 89.2759 71.7055 90.025C69.912 90.774 67.9881 91.1609 66.0444 91.1634Z" stroke="black" stroke-width="2" stroke-miterlimit="10"/>
</svg>
