<svg version="1.2" xmlns="http://www.w3.org/2000/svg" viewBox="0 0 90 90" width="90" height="90"><style>.a{fill:#0075f6}</style><path class="a" d="m64.2 90c-2.9 0-5.8-0.9-8.2-2.5-2.4-1.6-4.3-3.9-5.4-6.6-1.2-2.7-1.5-5.7-0.9-8.5 0.6-2.9 2-5.5 4-7.6 3.8-3.8 6-8.9 6-14.3 0-5.3-2.2-10.5-6-14.2-3.7-3.8-8.9-6-14.2-6-5.4 0-10.5 2.2-14.3 6-1.3 1.4-3 2.6-4.8 3.5-1.8 0.8-3.8 1.2-5.8 1.3-2 0-4-0.3-5.8-1.1-1.9-0.7-3.6-1.8-5-3.3-1.4-1.4-2.5-3.1-3.2-4.9-0.8-1.9-1.1-3.9-1.1-5.9 0.1-2 0.5-3.9 1.4-5.7 0.8-1.9 2-3.5 3.5-4.8 9.3-9.4 21.9-14.6 35.1-14.6 13.2 0 25.8 5.2 35.2 14.6 9.3 9.3 14.5 21.9 14.5 35.1 0 13.2-5.2 25.9-14.5 35.2-1.4 1.4-3 2.4-4.8 3.2-1.8 0.7-3.8 1.1-5.7 1.1z"/></svg>