<?xml version="1.0" encoding="iso-8859-1"?>
<!-- Uploaded to: SVG Repo, www.svgrepo.com, Generator: SVG Repo Mixer Tools -->
<svg height="800px" width="800px" version="1.1" id="Layer_1" xmlns="http://www.w3.org/2000/svg" xmlns:xlink="http://www.w3.org/1999/xlink" 
	 viewBox="0 0 512 512" xml:space="preserve">
<g transform="translate(1 1)">
	<path style="fill:#E2E3E5;" d="M378.733,392.387c-34.987,0-68.267-13.653-93.867-38.4c-3.413-3.413-3.413-8.533,0-11.947
		c3.413-3.413,8.533-3.413,11.947,0c21.333,21.333,50.347,34.133,81.067,34.133c63.147,0,115.2-52.053,115.2-115.2
		s-52.053-115.2-115.2-115.2s-114.347,51.2-114.347,114.347c0,72.533-59.733,132.267-132.267,132.267S-1,333.507-1,260.12
		s59.733-132.267,132.267-132.267c26.453,0,52.053,7.68,73.387,22.187c6.827,5.12,13.653,10.24,20.48,16.213
		c3.413,3.413,3.413,8.533,0,11.947c-3.413,3.413-8.533,3.413-11.947,0c-5.973-4.267-11.947-9.387-17.92-13.653
		c-18.773-12.8-40.96-19.627-64-19.627c-63.147,0-115.2,52.053-115.2,115.2s52.053,115.2,115.2,115.2s115.2-51.2,115.2-115.2
		c0-72.533,59.733-132.267,132.267-132.267S511,187.587,511,260.12S451.267,392.387,378.733,392.387z"/>
	<path style="fill:#B6B6B6;" d="M378.733,382.147c-34.987,0-68.267-13.653-93.867-38.4c-3.413-3.413-3.413-8.533,0-11.947
		c3.413-3.413,8.533-3.413,11.947,0c21.333,21.333,50.347,34.133,81.067,34.133c64-0.853,116.053-52.907,116.053-116.053
		s-52.053-115.2-115.2-115.2s-115.2,52.053-115.2,115.2c0,72.533-59.733,132.267-132.267,132.267S-1,322.413-1,249.88
		s59.733-132.267,132.267-132.267c26.453,0,52.053,7.68,73.387,22.187c6.827,5.12,13.653,10.24,20.48,16.213
		c3.413,3.413,3.413,8.533,0,11.947s-8.533,3.413-11.947,0c-5.12-5.12-11.093-10.24-17.92-14.507
		c-18.773-11.947-40.96-18.773-64-18.773c-63.147,0-115.2,52.053-115.2,115.2s52.053,115.2,115.2,115.2s115.2-52.053,115.2-115.2
		c0-72.533,59.733-132.267,132.267-132.267S511,177.347,511,249.88S451.267,382.147,378.733,382.147z"/>
</g>
</svg>