<svg width="40" height="40" viewBox="0 0 40 40" fill="none" xmlns="http://www.w3.org/2000/svg">
<g id="Frame 15">
<path id="Vector (Stroke)" fill-rule="evenodd" clip-rule="evenodd" d="M0 12.0266C0 5.38448 5.38448 0 12.0266 0H27.9734C34.6155 0 40 5.38448 40 12.0266V27.9734C40 34.6155 34.6155 40 27.9734 40H12.0266C5.38448 40 0 34.6155 0 27.9734V12.0266ZM12.0266 2.7907C6.92574 2.7907 2.7907 6.92574 2.7907 12.0266V27.9734C2.7907 33.0743 6.92574 37.2093 12.0266 37.2093H27.9734C33.0743 37.2093 37.2093 33.0743 37.2093 27.9734V12.0266C37.2093 6.92574 33.0743 2.7907 27.9734 2.7907H12.0266ZM31.9601 10.7641H29.3023V7.97342H31.9601V10.7641ZM10.6312 20C10.6312 14.8258 14.8258 10.6312 20 10.6312C25.1742 10.6312 29.3688 14.8258 29.3688 20C29.3688 25.1742 25.1742 29.3688 20 29.3688C14.8258 29.3688 10.6312 25.1742 10.6312 20ZM20 13.4219C16.367 13.4219 13.4219 16.367 13.4219 20C13.4219 23.633 16.367 26.5781 20 26.5781C23.633 26.5781 26.5781 23.633 26.5781 20C26.5781 16.367 23.633 13.4219 20 13.4219Z" fill="black"/>
</g>
</svg>
