<svg width="52" height="60" viewBox="0 0 52 60" fill="none" xmlns="http://www.w3.org/2000/svg">
<path fill-rule="evenodd" clip-rule="evenodd" d="M25.9343 2.85714C13.1912 2.85714 2.85714 13.1857 2.85714 25.9183C2.85714 35.6204 7.71026 43.4415 13.1597 48.8874C15.8797 51.6057 18.719 53.7008 21.1076 55.1085C22.3024 55.8127 23.3675 56.3349 24.2332 56.6766C25.1407 57.0348 25.7013 57.1429 25.9343 57.1429C26.1674 57.1429 26.728 57.0348 27.6355 56.6766C28.5012 56.3349 29.5663 55.8127 30.7611 55.1085C33.1496 53.7008 35.989 51.6057 38.709 48.8874C44.1584 43.4415 49.0115 35.6204 49.0115 25.9183C49.0115 13.1857 38.6775 2.85714 25.9343 2.85714ZM0 25.9183C0 11.606 11.615 0 25.9343 0C40.2537 0 51.8687 11.606 51.8687 25.9183C51.8687 36.6242 46.5111 45.1297 40.7287 50.9084C37.8328 53.8024 34.8009 56.044 32.2118 57.57C30.9177 58.3327 29.7173 58.9265 28.6844 59.3342C27.6934 59.7254 26.7223 60 25.9343 60C25.1463 60 24.1753 59.7254 23.1842 59.3342C22.1514 58.9265 20.951 58.3327 19.6569 57.57C17.0677 56.044 14.0359 53.8024 11.14 50.9084C5.35762 45.1297 0 36.6242 0 25.9183ZM16.3372 25.9183C16.3372 20.6223 20.6372 16.3265 25.9343 16.3265C31.2315 16.3265 35.5315 20.6223 35.5315 25.9183C35.5315 31.2142 31.2315 35.5102 25.9343 35.5102C20.6372 35.5102 16.3372 31.2142 16.3372 25.9183ZM25.9343 19.1836C22.2134 19.1836 19.1943 22.202 19.1943 25.9183C19.1943 29.6345 22.2134 32.653 25.9343 32.653C29.6553 32.653 32.6744 29.6345 32.6744 25.9183C32.6744 22.202 29.6553 19.1836 25.9343 19.1836Z" fill="black"/>
</svg>
