<svg version="1.2" xmlns="http://www.w3.org/2000/svg" viewBox="0 0 70 50" width="70" height="50"><style>.a{fill:#0075f6}</style><path  d="m30.9 49l-13.3-21.2-6.3 7.4v13.8h-8.8v-46.8h8.8v23.1h0.4l6.6-8.8 11.6-14.3h10.2l-16.3 19.5 17.6 27.3z"/><path class="a" d="m51.2 49.4q-2.7 0-4.5-0.9-1.8-0.9-3.2-2.5l2.8-2.8q1 1.2 2.2 1.9 1.3 0.7 2.9 0.7 1.7 0 2.4-0.6 0.8-0.6 0.8-1.6 0-0.8-0.6-1.3-0.5-0.5-1.7-0.6l-1.9-0.3q-3.1-0.4-4.7-1.7-1.6-1.4-1.6-4 0-1.4 0.5-2.4 0.5-1.1 1.5-1.9 0.9-0.8 2.2-1.2 1.3-0.4 2.9-0.4 1.4 0 2.5 0.2 1 0.2 1.9 0.6 0.9 0.3 1.6 0.9 0.7 0.5 1.4 1.2l-2.7 2.7q-0.8-0.8-2-1.4-1.1-0.6-2.5-0.6-1.5 0-2.2 0.6-0.7 0.5-0.7 1.4 0 0.9 0.6 1.4 0.6 0.5 1.9 0.7l1.9 0.2q6.1 0.9 6.1 5.6 0 1.3-0.6 2.5-0.5 1.1-1.5 1.9-1 0.8-2.5 1.3-1.4 0.4-3.2 0.4zm14.3 0q-1.5 0-2.2-0.7-0.7-0.8-0.7-1.9v-0.7q0-1.1 0.7-1.9 0.7-0.7 2.2-0.7 1.5 0 2.2 0.7 0.7 0.8 0.7 1.9v0.7q0 1.1-0.7 1.9-0.7 0.7-2.2 0.7z"/></svg>