<svg width="60" height="60" viewBox="0 0 60 60" fill="none" xmlns="http://www.w3.org/2000/svg">
<path fill-rule="evenodd" clip-rule="evenodd" d="M5.51021 2.85714C4.04496 2.85714 2.85714 4.04496 2.85714 5.5102L2.85714 38.1633C2.85714 39.6285 4.04496 40.8163 5.51021 40.8163L54.4898 40.8163C55.955 40.8163 57.1429 39.6285 57.1429 38.1633V5.51021C57.1429 4.04496 55.955 2.85715 54.4898 2.85715L5.51021 2.85714ZM1.47592e-06 5.5102C1.58946e-06 2.467 2.467 -1.13533e-07 5.51021 0L54.4898 2.15712e-06C57.533 2.27065e-06 60 2.46701 60 5.51021V38.1633C60 41.2065 57.533 43.6735 54.4898 43.6735L31.4286 43.6735V57.1429H52.449V60H7.55102V57.1429H28.5714V43.6735L5.51021 43.6735C2.467 43.6735 -1.13533e-07 41.2065 0 38.1633L1.47592e-06 5.5102Z" fill="black"/>
</svg>
