<svg width="60" height="60" viewBox="0 0 60 60" fill="none" xmlns="http://www.w3.org/2000/svg">
<path fill-rule="evenodd" clip-rule="evenodd" d="M0 9.59184C0 4.29441 4.29441 0 9.59184 0H18.6499C21.1783 0 23.3823 1.72082 23.9956 4.17378L26.3876 13.7418C27.0859 16.5351 25.5159 19.3951 22.7844 20.3056L18.2593 21.814C16.5811 22.3734 15.582 24.095 15.9289 25.8297C17.7699 35.0348 24.9652 42.2301 34.1703 44.0711C35.905 44.418 37.6266 43.4189 38.186 41.7407L39.4014 38.0945C40.4618 34.9134 44.0939 33.4089 47.0931 34.9085L56.954 39.839C58.8208 40.7724 60 42.6804 60 44.7675V50.4082C60 55.7056 55.7056 60 50.4082 60H42.2449C18.9137 60 0 41.0863 0 17.7551V9.59184ZM9.59184 2.85714C5.87237 2.85714 2.85714 5.87237 2.85714 9.59184V17.7551C2.85714 39.5084 20.4916 57.1429 42.2449 57.1429H50.4082C54.1276 57.1429 57.1429 54.1276 57.1429 50.4082V44.7675C57.1429 43.7626 56.5751 42.8439 55.6763 42.3945L45.8153 37.464C44.3713 36.742 42.6225 37.4664 42.1119 38.998L40.8966 42.6442C39.8815 45.6894 36.7576 47.5023 33.61 46.8727C23.2739 44.8055 15.1945 36.7261 13.1273 26.39C12.4977 23.2424 14.3106 20.1185 17.3558 19.1034L21.8809 17.5951C23.196 17.1567 23.952 15.7796 23.6157 14.4347L21.2237 4.86674C20.9285 3.68569 19.8673 2.85714 18.6499 2.85714H9.59184Z" fill="black"/>
</svg>
