<svg width="30" height="30" viewBox="0 0 30 30" fill="none" xmlns="http://www.w3.org/2000/svg">
<g id="Frame 3">
<path id="Vector (Stroke)" fill-rule="evenodd" clip-rule="evenodd" d="M30 26.3636C30 28.3719 28.3719 30 26.3636 30L19.5455 30C17.5371 30 15.9091 28.3719 15.9091 26.3636L15.9091 19.5455C15.9091 17.5371 17.5371 15.9091 19.5455 15.9091L27.2727 15.9091L27.2727 9.31818C27.2727 5.67812 24.3219 2.72727 20.6818 2.72727L20.6818 -1.70869e-06C25.8281 -1.25879e-06 30 4.17189 30 9.31818L30 26.3636ZM27.2727 18.6364L19.5455 18.6364C19.0434 18.6364 18.6364 19.0434 18.6364 19.5455L18.6364 26.3636C18.6364 26.8657 19.0434 27.2727 19.5455 27.2727L26.3636 27.2727C26.8657 27.2727 27.2727 26.8657 27.2727 26.3636L27.2727 18.6364ZM14.0909 26.3636C14.0909 28.3719 12.4629 30 10.4545 30L3.63636 30C1.62805 30 -7.51741e-07 28.3719 -5.76169e-07 26.3636L1.98957e-08 19.5455C1.95468e-07 17.5371 1.62806 15.9091 3.63636 15.9091L11.3636 15.9091L11.3636 9.31818C11.3636 5.67812 8.41279 2.72727 4.77273 2.72727L4.77273 -3.09951e-06C9.91902 -2.6496e-06 14.0909 4.17189 14.0909 9.31818L14.0909 26.3636ZM11.3636 18.6364L3.63636 18.6364C3.13429 18.6364 2.72727 19.0434 2.72727 19.5455L2.72727 26.3636C2.72727 26.8657 3.13429 27.2727 3.63636 27.2727L10.4545 27.2727C10.9566 27.2727 11.3636 26.8657 11.3636 26.3636L11.3636 18.6364Z" fill="#FF0000"/>
</g>
</svg>
