<svg width="60" height="60" viewBox="0 0 60 60" fill="none" xmlns="http://www.w3.org/2000/svg">
<path fill-rule="evenodd" clip-rule="evenodd" d="M0 17.5776C0 7.86941 7.86941 0 17.5776 0C21.0027 0 24.2059 0.983485 26.9102 2.6822C27.9078 2.56522 28.9386 2.48447 30 2.48447C45.1939 2.48447 57.5155 14.8035 57.5155 30C57.5155 31.0599 57.4368 32.0905 57.3168 33.0921C59.0145 35.7951 60 38.9952 60 42.4224C60 52.1307 52.128 60 42.4224 60C38.995 60 35.7944 59.0166 33.0887 57.3184C32.0883 57.4368 31.0581 57.5155 30 57.5155C14.8036 57.5155 2.48447 45.1964 2.48447 30C2.48447 28.9399 2.56323 27.9095 2.68155 26.9092C0.983309 24.2054 0 21.0047 0 17.5776ZM17.5776 2.85714C9.44736 2.85714 2.85714 9.44736 2.85714 17.5776C2.85714 20.6139 3.77619 23.4311 5.34964 25.772C5.54395 26.0611 5.62595 26.4112 5.58021 26.7565C5.43634 27.8428 5.34162 28.9171 5.34162 30C5.34162 43.6185 16.3815 54.6584 30 54.6584C31.0804 54.6584 32.1547 54.5637 33.241 54.4198C33.5861 54.3741 33.936 54.456 34.225 54.65C36.5688 56.2239 39.3862 57.1429 42.4224 57.1429C50.5503 57.1429 57.1429 50.5525 57.1429 42.4224C57.1429 39.3868 56.2218 36.5695 54.6479 34.228C54.453 33.938 54.3711 33.5867 54.4178 33.2404C54.5637 32.1564 54.6584 31.0828 54.6584 30C54.6584 16.3816 43.6161 5.34162 30 5.34162C28.9185 5.34162 27.8443 5.4385 26.7534 5.58058C26.4091 5.62543 26.0602 5.54332 25.772 5.34961C23.4312 3.77623 20.6116 2.85714 17.5776 2.85714ZM27.9592 19.1837C25.3668 19.1837 23.2653 21.2852 23.2653 23.8776C23.2653 26.4699 25.3668 28.5714 27.9592 28.5714H32.0408C36.2111 28.5714 39.5918 31.9521 39.5918 36.1225C39.5918 40.2928 36.2111 43.6735 32.0408 43.6735H28.441C25.1031 43.6735 22.0517 41.7876 20.559 38.8021L23.1145 37.5244C24.1232 39.5419 26.1853 40.8163 28.441 40.8163H32.0408C34.6332 40.8163 36.7347 38.7148 36.7347 36.1225C36.7347 33.5301 34.6332 31.4286 32.0408 31.4286H27.9592C23.7889 31.4286 20.4082 28.0479 20.4082 23.8776C20.4082 19.7072 23.7889 16.3265 27.9592 16.3265H31.559C34.8969 16.3265 37.9483 18.2124 39.441 21.1979L36.8855 22.4756C35.8768 20.4581 33.8147 19.1837 31.559 19.1837H27.9592Z" fill="white"/>
</svg>
