<svg width="40" height="40" viewBox="0 0 40 40" fill="none" xmlns="http://www.w3.org/2000/svg">
<g id="Frame 7">
<path id="Vector" d="M37.0855 11.5714C39.4429 9.31255 40.2425 7.58816 39.9383 3C38.5604 4.53163 36.7362 5.50345 34.903 5.78109C33.3585 4.07298 31.1267 3 28.6446 3C23.8533 3 19.9691 6.89013 19.9691 11.6888V14.4286C9.6993 14.4286 4.2791 6.80952 2.85273 3C-2.85273 14.4286 1.42637 24.4286 14.2637 28.7143C12.3619 30.6191 6.84656 34.4286 0 34.4286C4.2791 37.2857 8.76243 37.2857 13.3722 37.2857C26.4687 37.2857 37.0855 26.6525 37.0855 13.5357V11.5714Z" fill="black"/>
</g>
</svg>
