<svg width="40" height="40" viewBox="0 0 40 40" fill="none" xmlns="http://www.w3.org/2000/svg">
<g id="Frame 15">
<path id="Vector (Stroke)" fill-rule="evenodd" clip-rule="evenodd" d="M39.0035 3.0768C39.5336 3.26027 39.9023 3.74336 39.9394 4.30309C40.0855 6.50723 39.9825 8.19882 39.4638 9.66112C39.0016 10.964 38.2495 11.9724 37.2888 12.952V14.196C37.2888 27.1662 26.79 37.6842 13.8346 37.6842L13.7002 37.6843C9.49568 37.6846 4.954 37.6849 0.620626 34.7916C0.10941 34.4502 -0.118215 33.8146 0.0601238 33.2263C0.238463 32.638 0.780752 32.2358 1.39545 32.2358C5.81746 32.2358 9.62107 30.3715 11.9173 28.7671C6.91532 26.6342 3.37737 23.4299 1.61065 19.4084C-0.421154 14.7835 0.0123294 9.35756 2.80072 3.77215C3.04874 3.27536 3.5677 2.9729 4.1222 3.00197C4.6767 3.03104 5.16119 3.38612 5.35589 3.90612C6.49403 6.94587 10.7058 12.9324 18.5759 13.575V12.478C18.5759 7.24551 22.8117 3.00005 28.0414 3.00005C30.4652 3.00005 32.6721 3.93517 34.3197 5.46116C35.473 5.14481 36.6088 4.46367 37.5098 3.46218C37.8849 3.04514 38.4734 2.89333 39.0035 3.0768ZM19.9713 16.3555V16.4219C11.7741 16.4219 6.65456 11.6013 4.16348 7.67445C2.75539 11.6605 2.83772 15.2632 4.16565 18.2859C5.78751 21.9777 9.39016 25.0839 15.1058 26.992C15.5642 27.145 15.9108 27.5244 16.0219 27.9947C16.133 28.4651 15.9928 28.9594 15.6513 29.3014C14.2196 30.7353 10.8838 33.1574 6.49588 34.338C8.78876 34.8819 11.2038 34.8936 13.8346 34.8936C25.2447 34.8936 34.4981 25.629 34.4981 14.196V12.2595C34.4981 11.7027 34.8243 11.2221 35.2959 10.9982C36.0919 10.1864 36.5539 9.51663 36.8337 8.72812C36.9778 8.32167 37.0834 7.85581 37.1452 7.28849C36.1764 7.83562 35.1312 8.20165 34.0721 8.36205L33.331 8.4743L32.8282 7.91827C31.6446 6.60928 29.9392 5.79074 28.0414 5.79074C24.3571 5.79074 21.3666 8.78269 21.3666 12.478V16.3555L19.9713 16.3555Z" fill="black"/>
</g>
</svg>
