<svg width="50" height="40" viewBox="0 0 50 40" fill="none" xmlns="http://www.w3.org/2000/svg">
<g id="N.">
<path d="M31.511 0C31.859 0 32.1703 0.10989 32.4451 0.32967C32.7198 0.549451 32.8571 0.970696 32.8571 1.59341V37.4176C32.8571 38.7729 32.2161 39.4506 30.9341 39.4506H21.4011C20.7967 39.4506 20.293 39.3315 19.8901 39.0934C19.5055 38.8553 19.1575 38.5806 18.8462 38.2692L4.78022 23.5714C4.94506 25.9524 5.10989 28.141 5.27473 30.1374C5.32967 30.9982 5.39377 31.8498 5.46703 32.6923C5.54029 33.5348 5.6044 34.3223 5.65934 35.0549C5.71429 35.7875 5.76007 36.4286 5.7967 36.978C5.85165 37.5275 5.88828 37.9212 5.90659 38.1593C5.94322 38.4707 5.88828 38.7637 5.74176 39.0385C5.61355 39.3132 5.3022 39.4506 4.80769 39.4506H1.34615C1.01648 39.4506 0.705128 39.3498 0.412088 39.1484C0.137363 38.9286 0 38.5073 0 37.8846V2.03297C0 0.677656 0.750916 0 2.25275 0H11.5385C12.2344 0 12.8114 0.14652 13.2692 0.43956C13.7454 0.732601 14.2216 1.11722 14.6978 1.59341L28.0769 14.8626C27.8938 12.6832 27.7289 10.6685 27.5824 8.81868C27.5092 8.03114 27.4359 7.24359 27.3626 6.45604C27.3077 5.6685 27.2527 4.9359 27.1978 4.25824C27.1429 3.56227 27.0879 2.95788 27.033 2.44506C26.9963 1.93223 26.9689 1.54762 26.9506 1.29121C26.9139 0.998168 26.9689 0.714286 27.1154 0.43956C27.2802 0.14652 27.6465 0 28.2143 0H31.511ZM12.8022 3.04945C12.4725 2.71978 12.1978 2.51832 11.978 2.44506C11.7766 2.35348 11.4927 2.30769 11.1264 2.30769H9.17582L28.0769 21.0989V18.1868L12.8022 3.04945Z" fill="white"/>
<path d="M37.2802 33.6538C37.2802 32.7747 37.4451 31.9505 37.7747 31.1813C38.1227 30.4121 38.5806 29.7436 39.1484 29.1758C39.7344 28.5897 40.4121 28.1319 41.1813 27.8022C41.9506 27.4725 42.7747 27.3077 43.6538 27.3077C44.533 27.3077 45.3571 27.4725 46.1264 27.8022C46.8956 28.1319 47.5641 28.5897 48.1319 29.1758C48.718 29.7436 49.1758 30.4121 49.5055 31.1813C49.8352 31.9505 50 32.7747 50 33.6538C50 34.533 49.8352 35.3571 49.5055 36.1264C49.1758 36.8956 48.718 37.5733 48.1319 38.1593C47.5641 38.7271 46.8956 39.1758 46.1264 39.5055C45.3571 39.8352 44.533 40 43.6538 40C42.7747 40 41.9506 39.8352 41.1813 39.5055C40.4121 39.1758 39.7344 38.7271 39.1484 38.1593C38.5806 37.5733 38.1227 36.8956 37.7747 36.1264C37.4451 35.3571 37.2802 34.533 37.2802 33.6538ZM44.1209 29.6429C44.5604 30.1923 44.9084 30.8059 45.1648 31.4835C45.4212 32.1612 45.5494 32.8846 45.5494 33.6538C45.5494 34.4048 45.4212 35.1282 45.1648 35.8242C44.9084 36.5018 44.5604 37.1154 44.1209 37.6648C44.6154 37.6099 45.0824 37.4725 45.522 37.2527C45.9615 37.0147 46.337 36.7216 46.6484 36.3736C46.9597 36.0073 47.207 35.5952 47.3901 35.1374C47.5733 34.6612 47.6648 34.1667 47.6648 33.6538C47.6648 33.141 47.5733 32.6557 47.3901 32.1978C47.207 31.7216 46.9597 31.3095 46.6484 30.9615C46.337 30.5952 45.9615 30.3022 45.522 30.0824C45.0824 29.8443 44.6154 29.6978 44.1209 29.6429Z" fill="white"/>
</g>
</svg>
